<svg xmlns="http://www.w3.org/2000/svg" width="800" height="192" viewBox="0 0 800 192" fill="none">
<mask id="path-1-outside-1" maskUnits="userSpaceOnUse" x="3.05176e-05" y="97.4216" width="119" height="95" fill="black">
<rect fill="white" x="3.05176e-05" y="97.4216" width="119" height="95"/>
<path fill-rule="evenodd" clip-rule="evenodd" d="M20.7865 109.957C15.3481 110.074 11 114.515 11 119.955L11 145.663C11.0001 145.75 11.07 145.82 11.1564 145.82H11.2142C11.2517 145.82 11.2885 145.83 11.321 145.848L68.7301 178.91C73.5152 181.666 79.4275 181.57 84.1205 178.66L106.91 164.529C107.499 164.165 107.856 163.522 107.856 162.83L107.857 145.82V123.422C107.857 115.012 100.944 108.246 92.5362 108.425L20.7865 109.957Z"/>
</mask>
<path fill-rule="evenodd" clip-rule="evenodd" d="M20.7865 109.957C15.3481 110.074 11 114.515 11 119.955L11 145.663C11.0001 145.75 11.07 145.82 11.1564 145.82H11.2142C11.2517 145.82 11.2885 145.83 11.321 145.848L68.7301 178.91C73.5152 181.666 79.4275 181.57 84.1205 178.66L106.91 164.529C107.499 164.165 107.856 163.522 107.856 162.83L107.857 145.82V123.422C107.857 115.012 100.944 108.246 92.5362 108.425L20.7865 109.957Z" fill="#FCFCFC"/>
<path d="M11 119.955L22 119.955V119.955L11 119.955ZM20.7865 109.957L21.0214 120.955L20.7865 109.957ZM106.91 164.529L112.707 173.878L112.707 173.878L106.91 164.529ZM107.856 162.83L96.8565 162.83V162.83H107.856ZM107.857 145.82L118.857 145.82V145.82H107.857ZM68.7301 178.91L63.2404 188.443L68.7301 178.91ZM84.1205 178.66L78.3239 169.311L84.1205 178.66ZM11.321 145.848L16.8107 136.316H16.8107L11.321 145.848ZM22 119.955C22 120.499 21.5652 120.943 21.0214 120.955L20.5517 98.9599C9.131 99.2038 1.52588e-05 108.532 3.05176e-05 119.955L22 119.955ZM22 145.663L22 119.955L3.05176e-05 119.955L4.76837e-05 145.663L22 145.663ZM11.2142 134.82H11.1564V156.82H11.2142V134.82ZM74.2198 169.378L16.8107 136.316L5.83138 155.381L63.2404 188.443L74.2198 169.378ZM101.114 155.181L78.3239 169.311L89.9171 188.009L112.707 173.878L101.114 155.181ZM96.8565 162.83C96.8565 159.715 98.4668 156.822 101.114 155.181L112.707 173.878C116.531 171.508 118.856 167.328 118.856 162.83H96.8565ZM96.8565 145.82L96.8565 162.83L118.856 162.83L118.857 145.82L96.8565 145.82ZM96.8565 123.422V145.82H118.857V123.422H96.8565ZM21.0214 120.955L92.7711 119.423L92.3014 97.4276L20.5517 98.9599L21.0214 120.955ZM63.2404 188.443C71.5347 193.219 81.7826 193.053 89.9171 188.009L78.3239 169.311C77.0724 170.087 75.4958 170.113 74.2198 169.378L63.2404 188.443ZM118.857 123.422C118.857 108.845 106.875 97.1164 92.3014 97.4276L92.7711 119.423C95.0132 119.375 96.8565 121.179 96.8565 123.422H118.857ZM11.2142 156.82C9.32508 156.82 7.46885 156.324 5.83138 155.381L16.8107 136.316C15.1082 135.336 13.1783 134.82 11.2142 134.82V156.82ZM4.76837e-05 145.665C0.000721931 151.826 4.99538 156.82 11.1564 156.82V134.82C17.1447 134.82 21.9994 139.674 22 145.662L4.76837e-05 145.665Z" fill="#333333" mask="url(#path-1-outside-1)"/>
<mask id="path-3-outside-2" maskUnits="userSpaceOnUse" x="0" y="63.0048" width="153" height="96" fill="black">
<rect fill="white" y="63.0048" width="153" height="96"/>
<path fill-rule="evenodd" clip-rule="evenodd" d="M132.505 77.8344L76.5 75.0048L20.4954 77.8344C15.1755 78.1032 11 82.4949 11 87.8217L11 112.571C11 112.657 11.0698 112.727 11.156 112.727H11.2137C11.2512 112.727 11.288 112.736 11.3204 112.755L69.0141 145.981C73.6479 148.65 79.3521 148.65 83.9859 145.981L141.68 112.755C141.712 112.736 141.749 112.727 141.786 112.727H141.844C141.93 112.727 142 112.657 142 112.571V87.8217C142 82.495 137.825 78.1032 132.505 77.8344Z"/>
</mask>
<path fill-rule="evenodd" clip-rule="evenodd" d="M132.505 77.8344L76.5 75.0048L20.4954 77.8344C15.1755 78.1032 11 82.4949 11 87.8217L11 112.571C11 112.657 11.0698 112.727 11.156 112.727H11.2137C11.2512 112.727 11.288 112.736 11.3204 112.755L69.0141 145.981C73.6479 148.65 79.3521 148.65 83.9859 145.981L141.68 112.755C141.712 112.736 141.749 112.727 141.786 112.727H141.844C141.93 112.727 142 112.657 142 112.571V87.8217C142 82.495 137.825 78.1032 132.505 77.8344Z" fill="#FCFCFC"/>
<path d="M76.5 75.0048L77.0551 64.0188L76.5 63.9907L75.9449 64.0188L76.5 75.0048ZM132.505 77.8344L133.06 66.8484L132.505 77.8344ZM20.4954 77.8344L19.9403 66.8484L20.4954 77.8344ZM11 87.8217L22 87.8217V87.8217H11ZM141.68 112.755L136.19 103.223L141.68 112.755ZM69.0141 145.981L63.5244 155.513L69.0141 145.981ZM11.3204 112.755L16.8101 103.223L11.3204 112.755ZM75.9449 85.9907L131.95 88.8204L133.06 66.8484L77.0551 64.0188L75.9449 85.9907ZM21.0505 88.8204L77.0551 85.9907L75.9449 64.0188L19.9403 66.8484L21.0505 88.8204ZM22 87.8217C22 88.3543 21.5825 88.7935 21.0505 88.8204L19.9403 66.8484C8.76847 67.4129 3.8147e-06 76.6356 3.8147e-06 87.8217H22ZM22 112.571L22 87.8217L3.8147e-06 87.8217L0 112.571H22ZM11.2137 101.727H11.156V123.727H11.2137V101.727ZM74.5038 136.449L16.8101 103.223L5.83074 122.287L63.5244 155.513L74.5038 136.449ZM136.19 103.223L78.4962 136.449L89.4756 155.513L147.169 122.287L136.19 103.223ZM141.844 101.727H141.786V123.727H141.844V101.727ZM131 87.8217V112.571H153V87.8217H131ZM131.95 88.8204C131.418 88.7935 131 88.3544 131 87.8217H153C153 76.6356 144.232 67.4129 133.06 66.8484L131.95 88.8204ZM141.844 123.727C148.005 123.727 153 118.732 153 112.571H131C131 106.582 135.855 101.727 141.844 101.727V123.727ZM147.169 122.287C145.532 123.23 143.676 123.727 141.786 123.727V101.727C139.822 101.727 137.892 102.242 136.19 103.223L147.169 122.287ZM63.5244 155.513C71.5564 160.139 81.4436 160.139 89.4756 155.513L78.4962 136.449C77.2606 137.16 75.7394 137.16 74.5038 136.449L63.5244 155.513ZM11.2137 123.727C9.32433 123.727 7.46806 123.23 5.83074 122.287L16.8101 103.223C15.1079 102.242 13.178 101.727 11.2137 101.727V123.727ZM0 112.571C0.000138283 118.732 4.99481 123.727 11.156 123.727V101.727C17.1449 101.727 21.9999 106.581 22 112.57L0 112.571Z" fill="#333333" mask="url(#path-3-outside-2)"/>
<mask id="path-5-outside-3" maskUnits="userSpaceOnUse" x="0" y="29.9114" width="153" height="96" fill="black">
<rect fill="white" y="29.9114" width="153" height="96"/>
<path fill-rule="evenodd" clip-rule="evenodd" d="M132.253 43.3198L76.5 41.9114L20.7475 43.3198C15.3247 43.4568 11 47.8922 11 53.3167L11 79.4769C11 79.5632 11.07 79.6331 11.1563 79.6331H11.2141C11.2516 79.6331 11.2885 79.643 11.321 79.6617L69.0141 112.887C73.6479 115.556 79.3521 115.556 83.9859 112.887L141.679 79.6617C141.712 79.643 141.748 79.6331 141.786 79.6331H141.844C141.93 79.6331 142 79.5632 142 79.4768V53.3167C142 47.8922 137.675 43.4568 132.253 43.3198Z"/>
</mask>
<path fill-rule="evenodd" clip-rule="evenodd" d="M132.253 43.3198L76.5 41.9114L20.7475 43.3198C15.3247 43.4568 11 47.8922 11 53.3167L11 79.4769C11 79.5632 11.07 79.6331 11.1563 79.6331H11.2141C11.2516 79.6331 11.2885 79.643 11.321 79.6617L69.0141 112.887C73.6479 115.556 79.3521 115.556 83.9859 112.887L141.679 79.6617C141.712 79.643 141.748 79.6331 141.786 79.6331H141.844C141.93 79.6331 142 79.5632 142 79.4768V53.3167C142 47.8922 137.675 43.4568 132.253 43.3198Z" fill="#FCFCFC"/>
<path d="M76.5 41.9114L76.7778 30.9149L76.5 30.9079L76.2222 30.9149L76.5 41.9114ZM132.253 43.3198L132.53 32.3234L132.253 43.3198ZM20.7475 43.3198L21.0253 54.3163L20.7475 43.3198ZM11 53.3167L22 53.3167V53.3167H11ZM141.679 79.6617L147.169 89.1939L141.679 79.6617ZM11.321 79.6617L16.8106 70.1295L11.321 79.6617ZM76.2222 52.9079L131.975 54.3163L132.53 32.3234L76.7778 30.9149L76.2222 52.9079ZM21.0253 54.3163L76.7778 52.9079L76.2222 30.9149L20.4697 32.3234L21.0253 54.3163ZM22 53.3167C22 53.8591 21.5675 54.3026 21.0253 54.3163L20.4697 32.3234C9.08191 32.611 1.04904e-05 41.9253 1.04904e-05 53.3167H22ZM22 79.4769L22 53.3167L1.04904e-05 53.3167L0 79.4768L22 79.4769ZM11.2141 68.6331H11.1563V90.6331H11.2141V68.6331ZM74.5038 103.355L16.8106 70.1295L5.83131 89.1939L63.5244 122.42L74.5038 103.355ZM136.189 70.1295L78.4962 103.355L89.4756 122.42L147.169 89.1939L136.189 70.1295ZM141.844 68.6331H141.786V90.6331H141.844V68.6331ZM131 53.3167V79.4768H153V53.3167H131ZM131.975 54.3163C131.432 54.3026 131 53.8591 131 53.3167H153C153 41.9253 143.918 32.611 132.53 32.3234L131.975 54.3163ZM141.844 90.6331C148.005 90.6331 153 85.6383 153 79.4768H131C131 73.488 135.855 68.6331 141.844 68.6331V90.6331ZM147.169 89.1939C145.531 90.1368 143.675 90.6331 141.786 90.6331V68.6331C139.822 68.6331 137.892 69.1491 136.189 70.1295L147.169 89.1939ZM63.5244 122.42C71.5564 127.045 81.4436 127.045 89.4756 122.42L78.4962 103.355C77.2606 104.067 75.7394 104.067 74.5038 103.355L63.5244 122.42ZM11.2141 90.6331C9.32469 90.6331 7.46849 90.1368 5.83131 89.1939L16.8106 70.1295C15.1084 69.1492 13.1785 68.6331 11.2141 68.6331V90.6331ZM0 79.4776C0.000396729 85.6387 4.99512 90.6331 11.1563 90.6331V68.6331C17.1448 68.6331 21.9996 73.4876 22 79.4761L0 79.4776Z" fill="#333333" mask="url(#path-5-outside-3)"/>
<mask id="path-7-outside-4" maskUnits="userSpaceOnUse" x="-0.92157" y="0.127808" width="154" height="93" fill="black">
<rect fill="white" x="-0.92157" y="0.127808" width="154" height="93"/>
<path fill-rule="evenodd" clip-rule="evenodd" d="M141.746 46.3834C141.735 46.3834 141.723 46.3803 141.713 46.3744L83.986 13.1293C79.3521 10.4606 73.648 10.4606 69.0141 13.1293L11.2874 46.3744C11.2771 46.3803 11.2655 46.3834 11.2536 46.3834H11.1071C11.0778 46.3834 11.0674 46.4222 11.0928 46.4369C11.1119 46.4479 11.1119 46.4754 11.0928 46.4865C11.0674 46.5011 11.0778 46.5399 11.1071 46.5399H11.2536C11.2655 46.5399 11.2771 46.543 11.2874 46.5489L69.0141 79.794C73.648 82.4627 79.3521 82.4626 83.986 79.794L141.713 46.5489C141.723 46.543 141.735 46.5399 141.746 46.5399H141.893C141.922 46.5399 141.933 46.5011 141.907 46.4865C141.888 46.4754 141.888 46.4479 141.907 46.4368C141.933 46.4222 141.922 46.3834 141.893 46.3834H141.746Z"/>
</mask>
<path fill-rule="evenodd" clip-rule="evenodd" d="M141.746 46.3834C141.735 46.3834 141.723 46.3803 141.713 46.3744L83.986 13.1293C79.3521 10.4606 73.648 10.4606 69.0141 13.1293L11.2874 46.3744C11.2771 46.3803 11.2655 46.3834 11.2536 46.3834H11.1071C11.0778 46.3834 11.0674 46.4222 11.0928 46.4369C11.1119 46.4479 11.1119 46.4754 11.0928 46.4865C11.0674 46.5011 11.0778 46.5399 11.1071 46.5399H11.2536C11.2655 46.5399 11.2771 46.543 11.2874 46.5489L69.0141 79.794C73.648 82.4627 79.3521 82.4626 83.986 79.794L141.713 46.5489C141.723 46.543 141.735 46.5399 141.746 46.5399H141.893C141.922 46.5399 141.933 46.5011 141.907 46.4865C141.888 46.4754 141.888 46.4479 141.907 46.4368C141.933 46.4222 141.922 46.3834 141.893 46.3834H141.746Z" fill="#FCFCFC"/>
<path d="M141.713 46.5489L147.202 56.0812L141.713 46.5489ZM69.0141 79.794L63.5245 89.3262L69.0141 79.794ZM83.986 79.794L89.4756 89.3262L83.986 79.794ZM11.2874 46.5489L5.79777 56.0812L11.2874 46.5489ZM11.2874 46.3744L16.7771 55.9066L11.2874 46.3744ZM141.713 46.3744L136.223 55.9066L141.713 46.3744ZM78.4963 22.6615L136.223 55.9066L147.202 36.8421L89.4756 3.59705L78.4963 22.6615ZM16.7771 55.9066L74.5038 22.6615L63.5245 3.59706L5.79778 36.8421L16.7771 55.9066ZM11.1071 57.3834H11.2536V35.3834H11.1071V57.3834ZM11.2536 35.5399H11.1071V57.5399H11.2536V35.5399ZM74.5038 70.2618L16.7771 37.0167L5.79777 56.0812L63.5245 89.3262L74.5038 70.2618ZM136.223 37.0167L78.4963 70.2618L89.4756 89.3262L147.202 56.0812L136.223 37.0167ZM141.893 35.5399H141.746V57.5399H141.893V35.5399ZM141.746 57.3834H141.893V35.3834H141.746V57.3834ZM147.397 55.9692C157.18 50.3351 153.183 35.3834 141.893 35.3834V57.3834C130.662 57.3834 126.685 42.5093 136.418 36.9045L147.397 55.9692ZM147.397 36.9542C154.725 41.1743 154.725 51.7489 147.397 55.9692L136.418 36.9045C129.051 41.1468 129.052 51.7766 136.418 56.0187L147.397 36.9542ZM141.893 57.5399C153.184 57.5399 157.179 42.5876 147.397 36.9542L136.418 56.0187C126.686 50.4145 130.66 35.5399 141.893 35.5399V57.5399ZM147.202 56.0812C145.543 57.0369 143.661 57.5399 141.746 57.5399V35.5399C139.808 35.5399 137.903 36.0491 136.223 37.0167L147.202 56.0812ZM63.5245 89.3262C71.5565 93.9519 81.4436 93.9519 89.4756 89.3262L78.4963 70.2618C77.2606 70.9734 75.7395 70.9734 74.5038 70.2618L63.5245 89.3262ZM11.2536 57.5399C9.33848 57.5399 7.45711 57.0368 5.79777 56.0812L16.7771 37.0167C15.0972 36.0492 13.1925 35.5399 11.2536 35.5399V57.5399ZM5.60324 36.9542C-4.18021 42.5884 -0.182665 57.5399 11.1071 57.5399V35.5399C22.3383 35.5399 26.3151 50.4138 16.5824 56.0187L5.60324 36.9542ZM5.60308 55.969C-1.72405 51.7492 -1.72564 41.1748 5.60324 36.9542L16.5824 56.0187C23.9495 51.7761 23.9479 41.1465 16.5826 36.9047L5.60308 55.969ZM11.1071 35.3834C-0.186159 35.3834 -4.17708 50.3365 5.60308 55.969L16.5826 36.9047C26.3119 42.508 22.3418 57.3834 11.1071 57.3834V35.3834ZM5.79778 36.8421C7.45724 35.8864 9.33863 35.3834 11.2536 35.3834V57.3834C13.1923 57.3834 15.0971 56.8742 16.7771 55.9066L5.79778 36.8421ZM136.223 55.9066C137.903 56.8741 139.808 57.3834 141.746 57.3834V35.3834C143.662 35.3834 145.543 35.8865 147.202 36.8421L136.223 55.9066ZM89.4756 3.59705C81.4436 -1.02862 71.5565 -1.0286 63.5245 3.59706L74.5038 22.6615C75.7395 21.9499 77.2606 21.9499 78.4963 22.6615L89.4756 3.59705Z" fill="#333333" mask="url(#path-7-outside-4)"/>
<line x1="0.5" y1="47" x2="0.499996" y2="145" stroke="#333333"/>
<line x1="152.5" y1="47" x2="152.5" y2="111" stroke="#333333"/>
<path d="M265.433 91.55V65.6H289.133C299.183 65.6 303.533 71 303.533 78.65C303.533 86.3 299.183 91.55 289.133 91.55H265.433ZM265.433 111.65H289.133C313.883 111.65 325.433 97.25 325.433 78.65C325.433 60.05 314.783 45.5 289.133 45.5H243.533V152H265.433V111.65ZM374.728 116.6V119.75C374.728 130.1 368.128 137.3 355.678 137.3C347.128 137.3 343.828 134.45 343.828 129.05C343.828 124.7 346.678 121.4 355.828 119.75L374.728 116.6ZM350.878 153.8C362.878 153.8 370.828 150.35 375.778 143.3C375.778 148.4 376.528 152 376.678 152H397.228C395.878 148.85 394.978 143 394.978 137.9V100.85C394.978 82.55 383.578 71.6 360.478 71.6C335.578 71.6 326.278 85.1 325.078 98.75H346.078C346.828 93.35 350.728 89.15 360.628 89.15C369.928 89.15 374.728 93.05 374.728 100.7V101.45L353.728 104.6C332.728 107.9 323.278 116 323.278 129.65C323.278 143.75 332.728 153.8 350.878 153.8ZM453.947 72.8C453.947 72.8 452.147 72.65 451.397 72.65C438.047 72.65 432.047 78.95 429.197 83.6V73.4H409.547V152H430.847V112.85C430.847 98.45 437.297 92.3 449.747 92.3C451.697 92.3 453.947 92.75 453.947 92.75V72.8ZM506.793 116.6V119.75C506.793 130.1 500.193 137.3 487.743 137.3C479.193 137.3 475.893 134.45 475.893 129.05C475.893 124.7 478.743 121.4 487.893 119.75L506.793 116.6ZM482.943 153.8C494.943 153.8 502.893 150.35 507.843 143.3C507.843 148.4 508.593 152 508.743 152H529.293C527.943 148.85 527.043 143 527.043 137.9V100.85C527.043 82.55 515.643 71.6 492.543 71.6C467.643 71.6 458.343 85.1 457.143 98.75H478.143C478.893 93.35 482.793 89.15 492.693 89.15C501.993 89.15 506.793 93.05 506.793 100.7V101.45L485.793 104.6C464.793 107.9 455.343 116 455.343 129.65C455.343 143.75 464.793 153.8 482.943 153.8ZM597.111 83C592.161 75.8 583.611 71.6 572.511 71.6C550.611 71.6 536.661 89.15 536.661 111.05C536.661 132.95 550.611 150.5 572.511 150.5C583.611 150.5 591.411 145.7 595.461 140.3V151.25C595.461 160.55 589.911 166.55 579.111 166.55C568.461 166.55 564.861 160.7 563.961 156.2H542.661C543.861 168.65 554.511 184.85 578.811 184.85C602.811 184.85 616.761 169.55 616.761 149V73.4H597.111V83ZM596.061 111.05C596.061 123.35 588.411 131.75 577.011 131.75C565.611 131.75 557.961 123.35 557.961 111.05C557.961 98.75 565.611 90.35 577.011 90.35C588.411 90.35 596.061 98.75 596.061 111.05ZM667.308 153.8C692.508 153.8 708.558 135.05 708.558 112.7C708.558 90.35 692.508 71.6 667.308 71.6C642.108 71.6 626.058 90.35 626.058 112.7C626.058 135.05 642.108 153.8 667.308 153.8ZM647.358 112.7C647.358 98.6 656.058 90.35 667.308 90.35C678.558 90.35 687.258 98.6 687.258 112.7C687.258 126.8 678.558 135.05 667.308 135.05C656.058 135.05 647.358 126.8 647.358 112.7ZM738.296 73.4H718.646V152H739.946V107C739.946 96.5 745.646 89.9 755.996 89.9C765.446 89.9 769.346 96.2 769.346 105.35V152H790.646V102.95C790.646 84.2 780.596 71.6 761.696 71.6C749.996 71.6 741.896 76.25 738.296 83V73.4Z" fill="white"/>
</svg>
